<?xml version="1.0" standalone="no"?>
<!DOCTYPE svg PUBLIC "-//W3C//DTD SVG 20010904//EN"
 "http://www.w3.org/TR/2001/REC-SVG-20010904/DTD/svg10.dtd">
<svg version="1.0" xmlns="http://www.w3.org/2000/svg"
 width="3508.000000pt" height="2480.000000pt" viewBox="0 0 3508.000000 2480.000000"
 preserveAspectRatio="xMidYMid meet">

<g transform="translate(0.000000,2480.000000) scale(0.100000,-0.100000)"
fill="#000000" stroke="none">
<path d="M15580 15235 l0 -1965 1960 0 1960 0 0 1965 0 1965 -1960 0 -1960 0
0 -1965z m2202 1710 c567 -75 1068 -434 1326 -951 81 -161 152 -382 152 -470
l0 -44 -767 0 -768 0 -273 -500 -274 -500 -280 0 c-180 0 -278 4 -276 10 2 5
181 341 398 745 l395 735 558 0 c646 0 588 -16 456 124 -99 105 -186 172 -302
232 -484 251 -1070 162 -1453 -220 -179 -180 -301 -415 -345 -666 -19 -107
-16 -316 4 -422 99 -503 465 -873 972 -984 111 -25 312 -29 430 -10 232 39
445 137 622 288 60 51 163 160 163 172 0 3 -178 6 -395 6 -217 0 -395 3 -395
8 0 4 61 115 134 247 l134 240 632 3 633 2 -7 -54 c-24 -207 -140 -483 -292
-698 -80 -113 -288 -319 -404 -400 -205 -145 -464 -254 -708 -300 -163 -30
-436 -30 -603 0 -480 87 -896 364 -1163 774 -238 366 -326 843 -236 1276 90
432 362 834 730 1079 352 234 782 334 1202 278z"/>
<path d="M10635 12446 c-193 -32 -315 -89 -444 -211 -141 -132 -215 -296 -243
-537 -20 -182 25 -405 113 -555 55 -93 180 -211 277 -262 176 -91 296 -116
519 -109 122 5 164 10 238 32 374 112 574 390 575 797 0 204 -43 365 -136 505
-113 171 -284 286 -489 329 -107 22 -309 28 -410 11z m333 -384 c58 -31 118
-86 148 -137 58 -99 84 -322 55 -470 -24 -126 -107 -242 -209 -292 -50 -24
-68 -28 -152 -27 -120 0 -177 22 -250 100 -82 87 -112 167 -125 344 -7 94 8
195 45 292 35 94 123 177 220 209 14 5 70 7 125 6 81 -3 108 -7 143 -25z"/>
<path d="M14145 12449 c-204 -28 -364 -106 -491 -240 -150 -160 -218 -350
-217 -614 1 -117 5 -156 26 -237 64 -243 213 -419 434 -512 273 -115 579 -108
838 19 191 93 310 229 380 434 37 109 48 206 43 359 -5 122 -10 149 -42 247
-44 136 -92 218 -176 305 -117 120 -248 193 -405 225 -98 20 -295 27 -390 14z
m311 -387 c122 -63 190 -179 214 -366 10 -71 9 -103 -5 -193 -27 -170 -98
-284 -213 -340 -50 -24 -68 -28 -152 -27 -120 0 -177 22 -250 100 -93 98 -137
243 -127 414 14 229 107 379 267 431 14 5 70 7 125 6 79 -3 109 -8 141 -25z"/>
<path d="M12720 12419 c-485 -43 -768 -271 -879 -707 -44 -172 -55 -281 -55
-577 0 -154 4 -292 7 -308 l7 -27 237 2 236 3 -4 145 c-15 547 36 797 195 956
74 74 142 103 263 111 l83 6 2 -609 3 -609 238 -3 237 -2 0 808 0 809 -157 6
c-188 8 -286 7 -413 -4z"/>
<path d="M8812 11613 l3 -808 235 0 235 0 3 628 2 627 330 0 330 0 0 180 0
180 -570 0 -570 0 2 -807z"/>
<path d="M15312 11613 l3 -808 235 0 235 0 3 500 2 499 37 -54 c84 -124 212
-439 254 -622 l14 -58 157 0 157 0 15 58 c66 235 158 465 242 599 l49 78 3
-502 2 -503 235 0 235 0 0 810 0 810 -239 0 -239 0 -64 -72 c-148 -166 -293
-378 -354 -516 -17 -40 -34 -75 -37 -78 -3 -3 -25 38 -50 90 -76 161 -217 363
-350 503 l-70 73 -238 0 -239 0 2 -807z"/>
<path d="M17360 12240 l0 -180 260 0 260 0 0 -630 0 -630 235 0 235 0 0 630 0
630 260 0 260 0 0 180 0 180 -755 0 -755 0 0 -180z"/>
<path d="M19680 11610 l0 -810 388 0 c540 0 666 15 838 100 212 104 313 318
259 548 -58 245 -229 365 -576 403 -100 11 -366 6 -416 -7 -23 -6 -23 -6 -23
105 l0 111 425 0 425 0 0 180 0 180 -660 0 -660 0 0 -810z m868 -95 c100 -30
152 -88 152 -170 0 -83 -60 -158 -149 -186 -20 -7 -118 -14 -218 -16 l-183 -5
0 191 0 190 33 6 c105 17 289 12 365 -10z"/>
<path d="M21772 12393 c-65 -93 -194 -363 -270 -563 -69 -183 -199 -598 -241
-765 -19 -77 -51 -238 -51 -256 0 -5 104 -9 234 -9 l234 0 22 98 c12 53 26
114 31 135 l10 37 283 0 284 0 22 -122 c12 -68 24 -129 26 -135 2 -10 59 -13
239 -13 l235 0 -5 23 c-3 12 -19 90 -35 172 -97 477 -286 994 -487 1333 l-55
92 -228 0 -229 0 -19 -27z m318 -601 c43 -108 120 -363 113 -374 -2 -5 -85 -8
-184 -8 -175 0 -179 0 -179 21 0 29 111 359 150 444 l32 70 15 -28 c8 -16 32
-72 53 -125z"/>
<path d="M22980 11610 l0 -810 240 0 240 0 0 400 0 400 270 0 270 0 2 -397 3
-398 235 0 235 0 3 808 2 807 -240 0 -240 0 0 -225 0 -225 -270 0 -270 0 0
225 0 225 -240 0 -240 0 0 -810z"/>
<path d="M24730 11610 l0 -810 238 2 237 3 3 421 2 422 38 15 c37 15 37 15 70
-16 53 -50 150 -173 219 -279 106 -161 201 -378 237 -540 l6 -28 241 0 242 0
-7 42 c-10 65 -82 277 -131 387 -101 227 -238 441 -378 587 l-58 62 83 58
c104 72 328 295 397 393 28 41 51 78 51 83 0 4 -123 8 -273 8 l-273 0 -105
-103 c-110 -108 -202 -174 -296 -213 l-58 -23 -3 170 -2 169 -240 0 -240 0 0
-810z"/>
<path d="M9420 10222 c-263 -88 -503 -348 -582 -629 -30 -109 -30 -256 0 -333
64 -164 214 -220 419 -155 114 36 164 71 186 130 9 26 16 50 14 52 -2 2 -42
-15 -88 -37 -240 -114 -399 -52 -399 155 0 165 76 340 219 508 148 175 345
273 409 204 45 -48 24 -95 -88 -200 l-81 -75 55 -31 c54 -31 56 -32 88 -15 49
25 141 123 167 177 44 92 12 200 -72 244 -48 25 -178 28 -247 5z"/>
<path d="M11104 10049 c-16 -17 -47 -44 -68 -60 -75 -56 -166 -29 -166 49 0
32 -1 32 -47 32 -78 0 -93 -8 -93 -44 0 -37 30 -105 56 -127 83 -71 240 -39
359 74 l60 56 -30 25 c-16 14 -33 25 -36 26 -3 0 -18 -14 -35 -31z"/>
<path d="M14535 10039 c-100 -102 -216 -107 -231 -8 l-7 39 -51 0 c-71 0 -80
-8 -74 -65 6 -51 28 -86 72 -119 22 -17 42 -21 99 -20 92 1 160 32 240 110
l57 57 -32 23 c-17 13 -32 24 -33 24 0 0 -19 -18 -40 -41z"/>
<path d="M14748 9747 c-5 -46 8 -288 17 -325 5 -20 -9 -39 -83 -113 -53 -53
-97 -89 -109 -89 -30 0 -46 25 -41 65 2 19 2 35 0 35 -2 0 -49 -21 -103 -46
-96 -46 -129 -50 -129 -19 0 9 43 95 95 193 l94 177 -52 27 c-29 15 -55 27
-59 28 -3 0 -19 -21 -34 -47 -31 -54 -232 -263 -309 -323 -52 -40 -78 -49 -90
-30 -4 6 41 101 99 211 59 110 104 204 102 208 -6 10 -105 55 -109 50 -9 -10
-197 -371 -226 -433 -57 -125 -59 -200 -5 -225 58 -26 138 18 298 167 61 56
112 100 114 97 2 -2 -12 -30 -31 -62 -65 -107 -68 -162 -13 -198 29 -19 53
-14 163 36 l63 28 12 -27 c9 -17 27 -32 52 -40 76 -24 161 19 262 134 l59 67
18 -64 c22 -73 57 -126 95 -140 37 -14 86 2 154 51 49 35 59 47 76 99 l20 60
-66 -35 c-107 -57 -162 -37 -183 67 l-8 44 72 68 c40 37 116 103 170 147 107
88 106 84 24 121 -31 14 -25 18 -193 -144 l-81 -79 -7 48 c-3 26 -6 80 -6 120
l0 74 -59 29 -59 30 -4 -42z"/>
<path d="M20213 9653 c4 -76 10 -165 13 -198 l6 -60 -83 -83 c-110 -110 -155
-120 -152 -32 l2 39 -52 -23 c-29 -13 -78 -36 -110 -51 -61 -29 -90 -30 -95
-3 -2 9 40 103 93 209 l96 192 -57 24 c-31 12 -60 21 -63 18 -4 -2 -29 -51
-55 -108 l-47 -104 -77 -11 c-42 -7 -95 -15 -116 -18 l-39 -7 67 128 c37 70
65 130 62 132 -3 3 -27 16 -55 28 l-50 24 -24 -42 c-42 -72 -299 -589 -295
-593 2 -2 31 -12 65 -22 l60 -19 63 128 64 128 75 19 c102 27 141 33 141 23 0
-4 -16 -42 -35 -84 -40 -87 -45 -137 -15 -167 48 -48 100 -46 211 10 l56 29
12 -25 c14 -33 73 -57 115 -48 69 15 145 70 211 153 43 55 55 62 55 31 0 -36
40 -126 68 -152 39 -38 72 -43 125 -20 66 29 123 85 141 139 9 26 14 48 12 50
-2 3 -31 -9 -65 -26 -33 -17 -74 -31 -90 -31 -39 0 -76 44 -85 102 l-8 43 86
81 c47 45 122 110 166 144 44 35 80 67 80 70 0 4 -22 17 -49 30 l-50 23 -123
-116 -123 -116 -3 118 -3 117 -66 33 -66 32 6 -138z"/>
<path d="M20845 9682 c-82 -141 -195 -376 -211 -440 -12 -50 -13 -70 -4 -97
32 -97 133 -68 316 92 43 37 75 60 72 51 -4 -9 -34 -61 -66 -115 -94 -155
-202 -384 -202 -427 0 -9 17 -16 48 -20 26 -4 55 -9 64 -12 12 -4 21 2 27 18
111 270 190 436 342 719 49 91 89 169 89 172 0 12 -102 59 -110 50 -4 -4 -30
-42 -58 -84 -79 -119 -186 -243 -253 -293 -68 -51 -109 -60 -109 -23 0 12 49
113 109 225 l109 203 -59 29 -58 30 -46 -78z"/>
<path d="M21485 9692 c-65 -111 -190 -363 -208 -421 -25 -77 -22 -132 6 -159
56 -53 162 -6 309 137 32 30 60 52 63 49 3 -3 -24 -54 -61 -114 -116 -192
-226 -428 -206 -445 12 -11 126 -29 132 -22 4 5 15 31 25 58 57 156 212 479
341 713 41 74 74 136 72 137 -9 8 -110 56 -112 53 -168 -261 -325 -428 -403
-428 -41 0 -34 20 119 303 44 82 79 150 77 151 -5 5 -108 56 -111 56 -2 0 -21
-31 -43 -68z"/>
<path d="M23233 9717 c-57 -90 -175 -316 -204 -392 -42 -108 -48 -171 -19
-207 50 -64 158 -18 317 136 29 27 55 48 57 45 3 -3 -26 -59 -65 -125 -128
-217 -223 -430 -196 -439 12 -4 115 -25 121 -25 2 0 11 21 21 48 62 163 201
453 344 716 44 82 80 150 78 151 -9 8 -109 56 -112 53 -1 -2 -19 -30 -40 -63
-126 -201 -313 -383 -370 -361 -23 9 -17 24 99 241 55 104 102 194 104 200 1
6 -22 23 -53 38 l-55 27 -27 -43z"/>
<path d="M23854 9698 c-75 -127 -194 -370 -215 -438 -24 -81 -20 -131 14 -155
60 -42 160 6 320 154 26 24 49 42 51 40 3 -2 -25 -51 -60 -109 -106 -173 -214
-396 -214 -444 0 -8 17 -16 45 -19 25 -4 55 -9 67 -12 20 -5 26 1 47 57 72
188 216 488 349 728 l70 125 -52 27 c-28 15 -54 27 -57 28 -3 0 -35 -44 -71
-98 -85 -128 -179 -235 -252 -289 -66 -49 -106 -56 -106 -20 0 12 47 111 105
219 58 108 105 201 105 205 0 7 -93 63 -105 63 -2 0 -21 -28 -41 -62z"/>
<path d="M24777 9717 c-14 -23 -66 -96 -115 -162 -183 -244 -285 -344 -338
-331 -21 6 -24 12 -24 51 l0 45 -64 -32 c-57 -28 -65 -35 -70 -66 -18 -113
104 -175 216 -109 55 32 140 116 210 207 29 39 58 70 65 70 7 0 -4 -30 -27
-72 -48 -89 -58 -143 -36 -185 29 -57 82 -61 176 -13 97 49 116 67 132 124
l15 53 -56 -29 c-72 -38 -115 -36 -119 7 -3 33 42 149 127 325 l50 105 -52 27
c-29 15 -55 27 -59 28 -3 0 -17 -19 -31 -43z"/>
<path d="M10540 9638 c-192 -355 -233 -466 -197 -521 24 -37 60 -41 120 -14
59 27 176 119 257 201 58 60 84 73 54 29 -75 -113 -91 -180 -55 -224 27 -34
72 -28 184 24 102 48 112 58 133 142 l7 28 -66 -36 c-136 -77 -139 -44 -17
186 50 93 90 171 88 172 -2 1 -28 15 -58 30 -35 18 -56 23 -58 16 -18 -53
-218 -270 -335 -363 -54 -42 -87 -49 -87 -19 0 11 42 100 94 198 52 98 98 186
101 195 5 13 -5 23 -44 42 -28 14 -53 26 -55 26 -3 0 -32 -51 -66 -112z"/>
<path d="M11180 9433 c-88 -173 -159 -317 -158 -318 2 -1 31 -12 66 -23 l62
-21 64 128 64 127 59 17 c60 18 156 37 161 33 1 -2 -14 -39 -35 -82 -57 -120
-48 -178 32 -204 40 -13 98 4 201 61 68 37 71 40 86 93 8 31 12 54 9 52 -64
-34 -166 -76 -179 -74 -34 6 -22 48 68 233 49 104 89 189 88 190 -9 8 -109 47
-112 44 -2 -2 -26 -52 -54 -110 l-50 -107 -53 -6 c-30 -4 -78 -12 -107 -17
-30 -6 -56 -8 -59 -6 -2 3 23 59 56 125 34 65 61 122 61 125 0 7 -45 32 -84
47 -24 9 -28 2 -186 -307z"/>
<path d="M15283 9438 c-87 -172 -159 -315 -161 -319 -1 -3 29 -15 67 -26 l69
-20 61 127 60 127 78 21 c96 25 143 33 143 26 0 -3 -17 -40 -37 -82 -56 -118
-47 -176 32 -202 40 -13 109 8 208 64 58 32 64 39 80 87 9 29 15 54 14 55 -1
1 -38 -16 -82 -37 -86 -42 -118 -46 -123 -14 -2 12 38 104 88 205 49 102 90
188 90 191 0 4 -21 15 -47 25 -27 11 -51 20 -55 22 -4 2 -32 -46 -62 -106
l-55 -110 -53 -7 c-29 -3 -77 -11 -106 -16 -30 -6 -56 -9 -58 -6 -3 3 24 61
60 129 l66 124 -55 27 c-31 15 -57 27 -60 27 -2 0 -75 -141 -162 -312z"/>
<path d="M16100 9653 c-33 -54 -86 -149 -118 -212 -55 -110 -57 -116 -57 -193
0 -79 0 -80 37 -113 87 -80 210 -64 329 43 63 56 109 123 130 187 15 47 19 51
67 67 28 9 62 24 74 32 45 32 47 15 4 -51 -126 -195 -144 -298 -57 -324 30 -9
47 -7 99 10 68 23 127 57 153 87 9 11 23 41 32 67 l16 48 -32 -19 c-18 -11
-48 -29 -67 -41 -39 -23 -86 -28 -93 -8 -7 18 13 60 108 233 68 123 84 159 73
166 -7 5 -30 18 -50 28 l-37 20 -42 -45 c-55 -60 -120 -102 -196 -125 -56 -17
-66 -18 -97 -5 -50 21 -105 18 -150 -8 -54 -31 -65 -50 -46 -84 14 -24 21 -27
58 -25 26 2 42 -1 42 -8 0 -25 -45 -95 -94 -146 -40 -42 -59 -54 -82 -54 -40
0 -54 16 -54 62 0 43 29 105 147 316 41 74 73 135 71 136 -7 6 -101 56 -104
56 -1 0 -30 -44 -64 -97z"/>
<path d="M22257 9740 c-20 -6 -58 -21 -85 -34 -80 -42 -78 -39 -53 -80 13 -20
24 -36 26 -36 2 0 23 11 46 25 90 51 129 21 94 -73 -38 -103 -150 -277 -208
-322 -67 -53 -111 -26 -105 64 2 35 -1 55 -7 52 -5 -2 -34 -14 -62 -26 -44
-19 -53 -27 -55 -49 -8 -141 68 -204 198 -163 81 25 162 82 289 203 58 56 108
99 111 96 3 -2 -27 -66 -67 -141 -39 -76 -70 -139 -68 -140 2 -2 22 -12 43
-23 l40 -20 57 86 c55 83 173 211 184 199 3 -3 -7 -26 -21 -52 -18 -32 -26
-62 -26 -95 0 -139 107 -166 280 -70 72 40 90 62 108 136 6 22 -1 20 -101 -29
-124 -60 -138 -59 -143 15 -6 85 66 181 204 273 91 61 89 55 46 122 l-15 22
-56 -31 c-81 -46 -184 -118 -275 -194 -43 -36 -80 -65 -82 -65 -5 0 53 115
100 198 20 35 36 65 36 67 0 4 -72 46 -74 43 -33 -59 -271 -307 -283 -295 -2
3 14 32 35 65 66 102 78 204 29 250 -27 25 -88 34 -140 22z"/>
<path d="M25053 9438 c-87 -172 -159 -315 -161 -318 -1 -3 27 -15 63 -27 l66
-21 63 127 64 127 59 17 c64 19 156 37 161 32 2 -2 -13 -38 -34 -81 -58 -116
-49 -178 31 -204 39 -13 94 3 196 56 l66 35 39 -40 c49 -48 106 -66 183 -56
232 28 413 222 414 440 0 159 -90 244 -228 215 -50 -10 -155 -72 -161 -95 -2
-5 9 -26 25 -44 l29 -35 54 38 c99 68 168 37 153 -69 -11 -70 -22 -79 -78 -64
-52 13 -143 7 -176 -11 -24 -12 -20 -22 23 -74 23 -27 25 -28 47 -12 29 20
119 22 119 3 0 -8 -13 -32 -29 -53 -79 -110 -209 -166 -261 -114 -20 20 -25
40 -21 98 3 31 2 32 -26 22 -15 -6 -74 -34 -130 -61 -107 -53 -136 -58 -141
-23 -2 11 38 103 88 204 49 101 90 187 90 190 0 8 -109 54 -115 48 -2 -2 -26
-51 -53 -110 l-50 -106 -54 -6 c-29 -4 -77 -12 -106 -17 -30 -6 -56 -9 -58 -6
-2 2 25 60 61 129 l65 124 -55 27 c-31 15 -57 27 -60 27 -2 0 -75 -141 -162
-312z"/>
<path d="M12835 9726 c-153 -49 -312 -187 -386 -334 -30 -60 -34 -76 -34 -149
0 -76 2 -84 29 -112 44 -46 106 -57 207 -36 84 17 153 40 228 78 39 19 47 29
62 74 l17 52 -51 -21 c-104 -41 -193 -69 -243 -74 -47 -6 -52 -4 -73 21 -28
36 -22 75 27 175 43 86 150 205 196 216 29 7 63 -6 59 -23 -1 -4 -4 -20 -8
-34 -6 -24 -1 -29 42 -53 56 -32 66 -29 99 34 29 54 31 104 4 148 -32 52 -91
65 -175 38z"/>
<path d="M18285 9726 c-279 -92 -504 -410 -407 -577 48 -84 193 -85 396 -1 92
38 102 49 121 124 l7 26 -84 -34 c-93 -37 -189 -64 -228 -64 -15 0 -36 11 -50
25 -19 20 -22 31 -16 66 16 102 167 307 238 324 54 14 68 -8 44 -65 -4 -11 9
-23 48 -44 l55 -30 20 25 c55 66 62 147 18 203 -19 23 -32 29 -73 32 -27 2
-67 -2 -89 -10z"/>
<path d="M9920 9694 c-77 -35 -194 -127 -253 -199 -137 -163 -150 -338 -31
-396 40 -19 50 -20 92 -9 62 15 149 69 223 137 32 30 59 54 59 52 0 -2 -7 -22
-15 -44 -28 -78 -12 -127 49 -149 28 -10 112 19 180 62 55 34 61 42 77 93 l16
57 -83 -40 c-45 -22 -88 -37 -93 -33 -15 9 -14 46 4 88 8 20 49 99 90 177 41
78 75 144 75 146 0 2 -27 17 -60 34 -52 26 -60 28 -68 14 -8 -14 -14 -12 -47
10 -53 36 -138 36 -215 0z m185 -68 c19 -8 35 -18 35 -21 0 -4 -22 -48 -50
-98 -98 -182 -318 -346 -360 -268 -40 75 37 213 177 319 62 46 126 80 156 82
4 0 23 -7 42 -14z"/>
<path d="M13377 9705 c-112 -42 -288 -204 -345 -315 -74 -146 -41 -279 74
-304 61 -13 185 49 281 142 31 29 58 50 61 48 3 -3 0 -11 -5 -18 -6 -7 -16
-30 -23 -51 -16 -50 0 -90 46 -112 37 -17 66 -14 129 18 98 48 124 70 141 120
9 27 14 51 11 53 -3 3 -31 -8 -64 -24 -74 -38 -102 -42 -117 -19 -9 14 6 50
85 205 l97 189 -58 32 c-53 28 -60 30 -68 15 -8 -15 -12 -14 -41 7 -39 29
-145 37 -204 14z m183 -91 c13 -13 10 -25 -33 -109 -39 -76 -62 -107 -120
-161 -113 -104 -201 -146 -235 -112 -21 21 -14 95 14 151 59 116 255 267 329
252 16 -3 37 -12 45 -21z"/>
<path d="M17085 9706 c-22 -7 -66 -25 -98 -40 l-57 -28 17 -30 c24 -41 34 -43
82 -19 44 23 91 28 91 10 0 -7 -55 -69 -123 -138 -132 -135 -177 -205 -177
-274 0 -29 7 -45 28 -67 43 -43 93 -47 188 -15 141 47 176 77 197 165 6 25 6
25 -81 -17 -91 -44 -141 -53 -162 -28 -19 22 18 73 151 210 64 66 121 130 128
142 18 36 14 100 -9 123 -24 24 -110 27 -175 6z"/>
<path d="M18840 9711 c-126 -41 -287 -185 -361 -324 -79 -149 -29 -304 96
-301 64 1 160 53 243 129 38 36 72 65 75 65 4 0 -3 -19 -13 -42 -34 -75 -23
-120 36 -144 44 -18 85 -8 174 43 65 38 89 69 105 135 l7 27 -69 -34 c-91 -46
-111 -51 -120 -29 -9 24 10 71 98 238 44 81 79 152 79 156 0 4 -25 22 -57 40
-50 28 -57 30 -65 16 -8 -15 -13 -14 -41 6 -34 24 -138 35 -187 19z m170 -96
c13 -13 9 -25 -30 -102 -51 -100 -134 -190 -232 -254 -95 -61 -138 -51 -138
30 0 66 34 126 119 212 120 119 230 164 281 114z"/>
</g>
</svg>
