<svg xmlns="http://www.w3.org/2000/svg" version="1.0" preserveAspectRatio="xMidYMid meet" viewBox="725 1057 2057 366.6">

<g transform="translate(0.000000,2480.000000) scale(0.100000,-0.100000)" fill="#000000" stroke="none">
<path d="M7250 12980 l0 -1250 1255 0 1255 0 0 1250 0 1250 -1255 0 -1255 0 0 -1250z m1443 1086 c403 -66 743 -358 876 -753 11 -33 24 -86 29 -117 l9 -56 -491 0 -491 0 -175 -320 -175 -320 -178 0 c-108 0 -177 4 -175 9 2 6 116 219 253 475 l250 466 353 0 c193 0 352 3 352 8 0 17 -97 116 -155 157 -143 102 -289 148 -465 148 -305 -1 -560 -156 -700 -425 -201 -386 -38 -872 355 -1059 111 -53 182 -70 315 -76 94 -4 131 -1 202 16 157 37 282 107 393 220 l59 61 -253 0 c-211 0 -252 2 -249 14 2 8 39 79 83 160 l80 146 403 0 402 0 0 -23 c0 -13 -9 -58 -19 -99 -95 -372 -410 -682 -798 -785 -85 -22 -119 -26 -258 -27 -169 -1 -223 7 -360 51 -160 51 -294 133 -425 259 -193 186 -303 414 -330 683 -20 201 14 390 104 576 141 288 384 495 683 580 160 46 336 57 496 31z"/>
<path d="M12120 13815 c-354 -61 -595 -303 -661 -665 -15 -82 -15 -265 0 -350 59 -332 262 -548 599 -637 128 -34 352 -38 477 -9 355 82 565 296 630 641 34 180 6 419 -70 591 -72 164 -242 318 -423 384 -158 58 -375 75 -552 45z m355 -388 c60 -30 125 -96 155 -155 57 -115 74 -279 45 -440 -17 -96 -50 -164 -115 -232 -74 -79 -116 -95 -245 -95 -100 0 -115 2 -160 27 -142 74 -221 244 -218 464 3 225 97 392 248 447 76 27 222 19 290 -16z"/>
<path d="M15623 13815 c-102 -18 -219 -59 -293 -103 -72 -41 -200 -162 -249 -234 -92 -137 -153 -409 -132 -593 45 -395 251 -633 628 -727 71 -18 117 -22 238 -22 167 0 263 18 400 75 359 149 540 555 441 988 -92 405 -396 632 -846 630 -63 -1 -147 -7 -187 -14z m361 -390 c134 -67 206 -225 206 -448 -1 -214 -77 -373 -214 -445 -46 -24 -61 -27 -161 -27 -100 0 -115 2 -160 27 -100 52 -185 178 -205 304 -23 138 -6 318 39 420 63 143 172 207 341 201 81 -3 104 -7 154 -32z"/>
<path d="M14245 13793 c-462 -39 -741 -238 -869 -623 -67 -202 -94 -468 -81 -802 l7 -198 238 0 237 0 -1 288 c0 296 7 380 45 530 41 166 141 309 251 360 48 22 146 42 211 42 l37 0 0 -610 0 -610 240 0 240 0 0 809 0 808 -92 7 c-90 6 -386 6 -463 -1z"/>
<path d="M10310 12980 l0 -810 240 0 240 0 0 630 0 630 330 0 330 0 0 180 0 180 -570 0 -570 0 0 -810z"/>
<path d="M16830 12980 l0 -810 240 0 240 0 0 503 c1 562 -6 526 73 392 75 -129 181 -400 227 -583 l11 -43 155 3 156 3 35 120 c60 207 153 425 237 555 l35 55 1 -502 0 -503 240 0 240 0 0 810 0 810 -244 0 -244 0 -84 -97 c-166 -192 -301 -399 -358 -548 -11 -29 -12 -29 -54 60 -78 165 -215 364 -357 518 l-61 67 -244 0 -244 0 0 -810z"/>
<path d="M18880 13610 l0 -180 265 0 265 0 0 -630 0 -630 235 0 235 0 0 630 0 630 265 0 265 0 0 180 0 180 -765 0 -765 0 0 -180z"/>
<path d="M21210 12979 l0 -810 488 3 487 4 97 26 c115 31 221 85 286 144 125 112 181 309 137 479 -57 219 -183 322 -465 381 -64 14 -131 18 -275 19 -104 0 -209 -3 -232 -8 l-43 -7 0 110 0 110 425 0 425 0 0 180 0 180 -665 0 -665 0 0 -811z m865 -94 c111 -29 165 -86 165 -172 0 -43 -28 -110 -56 -135 -11 -10 -42 -27 -69 -40 -45 -20 -68 -23 -237 -26 l-188 -4 0 190 c0 224 -23 199 185 201 98 1 159 -4 200 -14z"/>
<path d="M23295 13733 c-87 -137 -236 -475 -322 -728 -89 -264 -223 -759 -223 -825 0 -6 89 -10 239 -10 l238 0 7 43 c4 23 16 84 28 135 l21 92 283 0 283 0 10 -37 c5 -21 15 -74 21 -118 6 -44 13 -88 16 -97 5 -17 25 -18 240 -18 200 0 234 2 234 15 0 30 -52 265 -100 450 -105 405 -270 815 -437 1085 l-40 65 -230 3 -231 2 -37 -57z m350 -598 c35 -91 105 -317 105 -342 0 -10 -37 -13 -186 -13 l-186 0 7 33 c13 58 95 299 137 400 l41 99 23 -43 c13 -24 39 -84 59 -134z"/>
<path d="M24530 12980 l0 -810 235 0 235 0 0 400 0 400 280 0 280 0 0 -400 0 -400 235 0 235 0 0 810 0 810 -235 0 -235 0 -2 -227 -3 -228 -275 0 -275 0 -3 228 -2 227 -235 0 -235 0 0 -810z"/>
<path d="M26290 12980 l0 -810 235 0 235 0 0 420 0 419 30 16 c16 8 35 15 43 15 17 0 105 -92 168 -175 148 -194 261 -413 313 -605 l23 -85 241 -3 c200 -2 242 0 242 11 0 27 -60 224 -99 323 -97 248 -233 471 -415 678 -42 47 -57 71 -47 74 7 2 57 37 110 77 120 90 289 265 360 370 l53 80 -281 3 -282 2 -26 -32 c-51 -64 -159 -160 -238 -213 -73 -49 -163 -95 -186 -95 -5 0 -9 74 -9 170 l0 170 -235 0 -235 0 0 -810z"/>
<path d="M13604 11845 c-209 -46 -432 -266 -507 -500 -28 -86 -38 -190 -26 -261 34 -198 208 -265 424 -164 82 39 84 41 100 92 l13 45 -66 -33 c-156 -79 -278 -68 -329 29 -22 43 -21 155 1 232 41 138 165 320 274 400 126 93 228 112 253 47 13 -35 -27 -99 -100 -160 l-58 -49 45 -27 c38 -23 49 -26 69 -17 38 17 123 102 144 143 23 45 25 118 4 158 -32 61 -136 89 -241 65z"/>
<path d="M14989 11684 c-43 -45 -79 -64 -122 -64 -38 0 -61 20 -71 63 -6 25 -10 27 -61 27 -53 0 -55 -1 -55 -27 1 -51 36 -112 74 -128 85 -36 189 -9 274 70 l57 53 -25 21 c-14 11 -27 20 -31 21 -3 0 -21 -16 -40 -36z"/>
<path d="M17873 11670 c-44 -43 -57 -50 -92 -50 -45 0 -69 19 -78 61 -5 28 -8 29 -59 29 l-54 0 0 -37 c0 -87 65 -139 165 -131 75 6 126 32 185 93 l45 46 -24 20 c-13 10 -26 19 -30 19 -3 0 -29 -23 -58 -50z"/>
<path d="M18083 11301 l6 -169 -69 -66 c-48 -47 -76 -66 -94 -66 -24 0 -26 4 -26 39 l0 39 -48 -18 c-27 -10 -65 -28 -85 -40 -38 -23 -67 -21 -67 3 0 8 34 79 75 159 41 80 75 149 75 155 0 9 -62 43 -79 43 -5 0 -23 -21 -39 -48 -32 -49 -209 -227 -274 -276 -37 -28 -58 -28 -58 0 0 8 38 86 85 173 47 87 85 161 85 165 0 6 -75 46 -88 46 -11 0 -218 -405 -230 -453 -14 -50 1 -95 34 -103 55 -14 155 47 282 170 34 33 62 57 62 54 0 -4 -13 -29 -30 -54 -35 -56 -47 -106 -32 -139 20 -45 54 -41 204 20 11 4 18 0 22 -13 8 -23 46 -42 84 -42 42 0 125 54 177 114 45 53 65 62 65 30 0 -9 10 -38 21 -65 39 -89 101 -100 192 -33 45 33 59 53 73 109 l6 24 -53 -29 c-90 -49 -131 -35 -151 52 l-10 43 84 77 c46 43 109 97 140 120 32 24 57 46 58 50 0 4 -18 17 -40 28 l-40 20 -102 -94 -103 -95 -7 37 c-4 20 -7 64 -7 98 l-1 60 -45 22 c-25 12 -48 22 -52 22 -3 0 -3 -76 0 -169z"/>
<path d="M22694 11435 c-3 -19 -1 -92 5 -161 13 -144 14 -141 -78 -227 -55 -51 -95 -62 -106 -27 -3 11 -3 29 0 40 3 11 4 20 0 20 -3 0 -41 -18 -85 -40 -90 -45 -130 -51 -130 -20 0 11 34 88 75 170 41 82 75 154 75 159 0 8 -70 41 -89 41 -4 0 -27 -42 -50 -94 l-43 -93 -66 -7 c-37 -3 -80 -9 -95 -12 l-28 -7 55 110 55 110 -46 22 c-25 12 -49 19 -53 14 -4 -4 -66 -124 -139 -266 -114 -224 -129 -258 -114 -264 10 -3 33 -12 52 -19 18 -8 35 -14 37 -14 2 0 28 49 58 108 52 103 56 109 96 121 48 14 140 26 140 18 0 -3 -13 -34 -30 -69 -35 -73 -37 -107 -11 -139 27 -34 98 -32 168 4 61 31 63 32 63 12 0 -18 50 -45 83 -45 44 0 126 51 179 111 28 32 55 56 58 54 4 -3 10 -19 14 -36 17 -86 69 -137 129 -125 16 3 52 22 79 42 47 35 60 54 74 109 l6 24 -53 -29 c-30 -16 -66 -30 -81 -30 -32 0 -65 38 -74 87 -6 31 -2 39 37 80 24 24 88 81 142 125 69 58 94 84 85 90 -67 45 -60 47 -170 -56 -71 -66 -104 -92 -110 -83 -4 6 -8 50 -8 98 l0 85 -45 22 c-25 12 -47 22 -50 22 -2 0 -7 -16 -11 -35z"/>
<path d="M23256 11428 c-43 -67 -160 -293 -186 -360 -37 -95 -38 -131 -5 -163 30 -31 47 -31 110 -1 45 21 160 113 193 154 31 40 6 -16 -45 -100 -66 -109 -160 -300 -169 -345 -6 -31 -6 -31 42 -38 27 -3 53 -7 57 -8 4 -1 36 66 71 150 58 137 168 358 275 549 l40 71 -45 21 c-24 12 -46 22 -48 22 -3 0 -29 -35 -59 -78 -116 -165 -234 -282 -286 -282 -24 0 -26 8 -9 47 13 30 115 221 154 290 l24 42 -43 26 c-53 30 -53 30 -71 3z"/>
<path d="M23723 11303 c-111 -202 -136 -265 -137 -336 -1 -63 15 -87 59 -87 38 0 119 48 193 116 40 36 75 65 77 62 2 -2 -14 -33 -37 -68 -87 -139 -188 -349 -188 -394 0 -8 21 -16 54 -22 l53 -10 48 115 c56 134 181 389 266 543 32 59 59 109 59 112 0 6 -75 46 -87 46 -4 0 -21 -21 -38 -48 -84 -133 -237 -294 -293 -308 -52 -14 -45 10 63 209 47 87 85 161 85 165 0 7 -82 52 -94 52 -1 0 -39 -66 -83 -147z"/>
<path d="M25183 11298 c-143 -267 -166 -337 -123 -390 12 -16 31 -28 44 -28 40 0 123 50 194 116 39 35 73 64 77 64 4 0 -3 -17 -15 -37 -123 -206 -210 -384 -210 -426 0 -9 20 -17 56 -24 48 -9 57 -8 61 6 43 126 153 359 285 603 44 81 77 152 74 156 -6 10 -85 47 -89 41 -22 -38 -104 -150 -149 -205 -78 -95 -152 -154 -193 -154 -28 0 -12 40 84 217 l88 163 -45 25 c-24 14 -47 25 -51 25 -3 0 -43 -69 -88 -152z"/>
<path d="M25729 11318 c-140 -254 -176 -371 -130 -417 11 -11 31 -21 44 -21 40 0 119 47 192 114 39 36 73 65 77 66 4 0 -17 -41 -48 -91 -88 -146 -174 -330 -174 -373 0 -8 20 -17 53 -22 l52 -9 51 120 c66 156 165 357 254 519 54 98 68 131 58 138 -24 16 -67 38 -75 38 -5 0 -32 -36 -61 -80 -88 -133 -237 -280 -284 -280 -33 0 -17 45 77 217 47 86 85 159 85 163 0 5 -84 50 -95 50 -2 0 -36 -60 -76 -132z"/>
<path d="M26520 11368 c-78 -116 -203 -270 -263 -323 -37 -34 -57 -45 -76 -43 -22 3 -26 9 -29 40 l-3 37 -54 -26 c-41 -20 -54 -32 -57 -52 -8 -55 21 -105 67 -117 74 -18 159 34 265 165 41 50 76 87 78 82 2 -5 -9 -32 -23 -59 -48 -93 -46 -161 6 -182 37 -16 68 -7 154 43 46 26 57 38 70 76 8 24 15 46 15 48 0 2 -22 -8 -50 -22 -127 -64 -129 -21 -14 229 36 76 63 140 62 141 -28 19 -77 45 -84 45 -5 -1 -34 -37 -64 -82z"/>
<path d="M14506 11317 c-85 -160 -152 -304 -160 -343 -9 -43 8 -82 39 -90 56 -14 138 36 281 168 59 54 65 58 47 28 -63 -103 -71 -158 -27 -186 24 -16 29 -16 77 -1 29 10 74 30 102 45 41 22 52 35 67 75 10 26 15 47 13 47 -3 0 -33 -14 -66 -31 -46 -23 -64 -27 -74 -19 -17 15 -16 18 72 182 40 75 73 139 73 142 0 6 -75 46 -87 46 -5 0 -17 -17 -28 -37 -34 -64 -294 -313 -327 -313 -22 0 -1 54 75 198 45 86 83 160 85 164 3 7 -70 48 -87 48 -5 0 -39 -55 -75 -123z"/>
<path d="M15122 11288 c-44 -84 -105 -204 -136 -265 l-56 -113 33 -14 c81 -33 73 -38 128 79 39 83 56 108 77 116 37 15 150 34 157 27 3 -3 -8 -34 -25 -69 -35 -74 -37 -108 -11 -140 30 -37 90 -33 185 14 77 39 86 48 102 113 l7 26 -61 -31 c-75 -38 -112 -41 -112 -8 0 12 34 91 75 176 41 84 75 154 75 156 0 4 -78 35 -88 35 -5 0 -27 -42 -51 -94 l-42 -93 -67 -7 c-37 -3 -80 -9 -95 -12 l-28 -7 55 110 55 110 -45 21 c-24 12 -46 22 -48 22 -3 0 -40 -69 -84 -152z"/>
<path d="M18530 11175 c-74 -145 -132 -266 -130 -268 13 -11 105 -36 108 -30 1 5 26 53 55 108 58 111 70 120 185 132 l52 6 -35 -75 c-40 -85 -40 -115 2 -148 38 -29 69 -25 169 23 86 42 89 45 101 88 6 24 10 45 8 47 -2 2 -29 -10 -60 -27 -61 -33 -115 -41 -115 -18 0 8 35 88 79 178 l79 163 -40 18 c-22 10 -44 18 -49 18 -5 0 -29 -42 -53 -93 l-43 -94 -64 -6 c-35 -3 -78 -9 -95 -13 l-32 -6 54 103 c29 57 53 107 54 111 0 8 -43 32 -75 41 -18 6 -36 -25 -155 -258z"/>
<path d="M19220 11358 c-95 -155 -144 -263 -148 -332 -4 -55 -1 -65 22 -93 47 -56 128 -67 209 -28 81 38 179 151 193 223 5 24 13 34 33 39 14 3 43 14 63 24 56 28 60 24 23 -31 -48 -72 -86 -153 -92 -198 -7 -49 21 -82 67 -82 37 0 126 35 166 65 25 19 61 91 50 102 -1 2 -27 -10 -57 -27 -116 -64 -118 -27 -9 170 59 106 76 146 67 152 -62 43 -66 43 -114 -6 -24 -25 -73 -60 -109 -77 -55 -27 -70 -31 -106 -24 -83 15 -131 11 -165 -13 -54 -38 -34 -98 27 -85 36 7 38 -3 10 -58 -51 -98 -146 -151 -172 -94 -15 33 1 72 105 260 l84 150 -41 22 c-23 12 -44 22 -48 23 -4 0 -30 -37 -58 -82z"/>
<path d="M24394 11422 c-55 -19 -104 -48 -104 -60 0 -4 9 -18 19 -31 l18 -23 41 21 c99 50 114 11 49 -122 -107 -220 -232 -311 -232 -168 0 28 -3 51 -7 51 -3 0 -27 -9 -52 -20 -46 -19 -52 -30 -47 -85 5 -62 53 -105 119 -105 58 0 163 65 276 170 59 55 110 100 112 100 3 0 -22 -52 -55 -116 -34 -64 -61 -119 -61 -123 0 -4 16 -15 34 -24 l35 -16 48 72 c43 65 151 182 160 173 2 -2 -6 -21 -19 -41 -15 -27 -22 -55 -23 -93 0 -47 4 -57 28 -78 33 -28 68 -30 134 -8 83 27 138 69 151 113 7 21 12 41 12 44 0 4 -37 -12 -82 -33 -90 -44 -113 -48 -122 -24 -29 75 49 190 188 279 l55 35 -20 35 c-12 19 -24 35 -28 35 -18 0 -166 -96 -242 -158 -129 -103 -127 -107 -32 61 25 44 43 80 41 81 -2 1 -15 9 -29 19 l-27 16 -62 -73 c-56 -67 -170 -176 -184 -176 -4 0 9 24 28 53 48 72 62 126 48 175 -19 63 -73 77 -168 44z"/>
<path d="M26791 11188 c-71 -139 -131 -259 -133 -267 -2 -8 16 -20 50 -32 l52 -18 54 108 c52 102 56 108 96 120 46 14 140 26 140 19 0 -3 -13 -35 -30 -71 -35 -77 -37 -106 -11 -138 30 -38 91 -33 184 15 l76 38 35 -35 c74 -74 227 -59 353 34 151 112 203 346 96 439 -41 36 -90 46 -149 30 -44 -13 -124 -63 -124 -78 0 -4 11 -20 24 -37 l23 -29 32 27 c57 47 119 50 135 6 5 -14 6 -46 2 -71 l-7 -44 -99 0 c-120 1 -134 -7 -95 -58 26 -35 28 -35 55 -21 30 16 100 21 100 7 0 -27 -84 -118 -132 -143 -81 -42 -138 -15 -138 64 0 46 -3 45 -122 -14 -88 -44 -128 -50 -128 -19 0 11 34 88 75 170 41 82 75 154 75 159 0 8 -71 41 -89 41 -5 0 -28 -43 -52 -95 l-44 -95 -37 0 c-20 0 -60 -5 -88 -11 -28 -6 -54 -9 -56 -6 -3 3 20 52 50 109 l56 104 -45 22 c-25 12 -47 22 -50 22 -2 0 -62 -114 -134 -252z"/>
<path d="M16439 11414 c-65 -20 -184 -108 -241 -178 -59 -74 -88 -135 -95 -200 -10 -100 40 -156 139 -156 52 0 161 29 239 63 49 22 57 30 68 67 7 23 11 43 9 45 -2 1 -43 -13 -92 -32 -165 -64 -235 -54 -221 31 9 61 64 155 127 219 45 45 63 57 88 57 30 0 31 -2 28 -36 -3 -33 1 -38 39 -60 l42 -25 28 42 c59 90 24 180 -70 178 -23 0 -63 -7 -88 -15z"/>
<path d="M21030 11407 c-31 -13 -76 -37 -101 -54 -64 -44 -162 -152 -190 -209 -28 -58 -37 -165 -17 -204 17 -33 73 -60 123 -60 49 0 164 31 238 64 49 21 56 28 70 71 15 44 15 46 -1 40 -9 -5 -60 -23 -112 -41 -99 -35 -158 -42 -178 -22 -21 21 -13 80 18 146 37 79 74 128 124 164 61 44 115 32 87 -20 -9 -18 -5 -23 32 -45 l42 -25 22 20 c51 47 54 140 6 178 -34 27 -93 26 -163 -3z"/>
<path d="M14009 11401 c-105 -41 -235 -165 -290 -277 -27 -55 -31 -71 -27 -120 4 -50 9 -61 41 -91 40 -36 70 -41 128 -21 44 15 113 61 168 112 29 27 41 34 36 21 -15 -40 -17 -100 -3 -118 7 -9 30 -20 51 -24 30 -5 50 1 102 27 35 18 71 40 79 49 15 17 49 101 41 101 -3 0 -33 -14 -69 -32 -70 -34 -102 -33 -91 4 3 13 37 85 76 160 38 76 69 142 69 148 0 16 -91 64 -99 52 -5 -9 -18 -6 -46 8 -48 24 -105 25 -166 1z m146 -63 c14 -6 25 -16 25 -21 0 -32 -91 -175 -139 -219 -59 -53 -146 -108 -173 -108 -21 0 -38 29 -38 67 0 68 127 220 224 268 57 28 65 30 101 13z"/>
<path d="M16928 11407 c-137 -52 -287 -205 -324 -333 -18 -64 -7 -126 31 -163 21 -22 34 -26 78 -26 65 1 125 33 211 114 33 31 56 47 51 36 -35 -87 -31 -117 17 -144 33 -19 81 -9 154 35 54 32 63 41 76 84 l16 48 -62 -29 c-121 -57 -124 -36 -21 163 41 80 75 148 75 151 0 4 -22 18 -49 32 -42 21 -50 22 -55 9 -5 -12 -10 -11 -35 7 -37 27 -112 34 -163 16z m140 -72 l22 -16 -36 -71 c-20 -39 -58 -95 -86 -124 -52 -55 -164 -134 -189 -134 -42 0 -52 74 -19 140 31 60 123 153 187 188 66 36 89 39 121 17z"/>
<path d="M20055 11406 c-43 -14 -125 -54 -125 -61 0 -11 24 -55 31 -55 4 0 26 9 50 20 101 45 92 14 -29 -107 -138 -138 -184 -241 -132 -293 44 -44 123 -38 232 18 62 31 75 43 87 75 8 20 12 39 9 42 -2 3 -40 -11 -84 -30 -91 -40 -110 -43 -119 -15 -9 29 9 55 121 170 57 58 108 118 113 133 37 97 -31 142 -154 103z"/>
<path d="M21518 11401 c-110 -44 -250 -178 -299 -286 -20 -44 -25 -129 -9 -169 12 -33 66 -66 106 -66 45 0 140 51 208 112 33 29 56 44 51 33 -5 -11 -9 -42 -10 -70 0 -43 3 -51 27 -64 23 -13 34 -14 73 -3 69 18 151 74 159 109 4 15 9 36 12 45 4 15 -5 13 -58 -12 -74 -35 -98 -38 -98 -11 0 10 34 87 75 170 41 84 75 154 75 156 0 2 -21 15 -47 29 -34 19 -48 23 -54 15 -5 -9 -14 -8 -34 5 -40 27 -121 30 -177 7z m152 -69 l23 -19 -38 -69 c-56 -101 -96 -147 -181 -203 -104 -70 -134 -66 -134 15 0 79 123 224 231 273 55 25 71 26 99 3z"/>
</g>
</svg>